<?xml version="1.0" encoding="utf-8"?>
<!-- Generator: Adobe Illustrator 19.0.0, SVG Export Plug-In . SVG Version: 6.00 Build 0)  -->
<svg version="1.1" id="Layer_1" xmlns="http://www.w3.org/2000/svg" xmlns:xlink="http://www.w3.org/1999/xlink" x="0px" y="0px"
	 viewBox="0 0 190.8 177.8" style="enable-background:new 0 0 190.8 177.8;" xml:space="preserve">
<style type="text/css">
	.st0{fill:#FFFFFF;}
</style>
<g id="XMLID_1_">
	<path id="XMLID_26_" class="st0" d="M128,97.7L95.4,0L62.8,97.7L0,64l21,71.2l70.2,40.2l4.2,2.4l4-2.3h0l70.4-40.3l21-71.2
		L128,97.7z M125.8,141.6l-30.4,17.7L65,141.6l6.9-20.8l23.5,12.6l23.5-12.6L125.8,141.6z M95.4,50.5l18.3,54.9l-18.3,9.8l-18.3-9.8
		L95.4,50.5z M26.2,96.2l31.4,16.9l-6.9,20.6l-16.2-9.3L26.2,96.2z M156.2,124.5l-16.2,9.3l-6.9-20.6l31.4-16.9L156.2,124.5z"/>
	<polygon id="XMLID_10_" class="st0" points="99.3,175.5 95.4,177.8 91.2,175.4 95.4,177.8 	"/>
</g>
</svg>
