<?xml version="1.0" encoding="utf-8"?>
<!-- Generator: Adobe Illustrator 19.0.0, SVG Export Plug-In . SVG Version: 6.00 Build 0)  -->
<svg version="1.1" id="Layer_1" xmlns="http://www.w3.org/2000/svg" xmlns:xlink="http://www.w3.org/1999/xlink" x="0px" y="0px"
	 viewBox="-234 252.5 490.3 56.5" style="enable-background:new -234 252.5 490.3 56.5;" xml:space="preserve">
<style type="text/css">
	.st0{fill:url(#XMLID_2_);}
	.st1{fill:url(#XMLID_3_);}
	.st2{fill:url(#XMLID_5_);}
	.st3{fill:url(#XMLID_6_);}
	.st4{fill:url(#XMLID_7_);}
	.st5{fill:url(#XMLID_8_);}
	.st6{fill:url(#XMLID_9_);}
	.st7{fill:url(#XMLID_10_);}
	.st8{fill:url(#XMLID_11_);}
	.st9{fill:url(#XMLID_12_);}
	.st10{fill:#252525;}
	.st11{fill:url(#XMLID_13_);}
	.st12{fill:url(#XMLID_14_);}
	.st13{fill:#F3A957;}
</style>
<g id="XMLID_4_">
	<g id="XMLID_198_">
		<g id="XMLID_201_">
			
				<linearGradient id="XMLID_2_" gradientUnits="userSpaceOnUse" x1="-234" y1="282" x2="256.27" y2="282" gradientTransform="matrix(1 0 0 -1 0 563)">
				<stop  offset="0" style="stop-color:#FFFFFF"/>
				<stop  offset="1" style="stop-color:#000000"/>
			</linearGradient>
			<path id="XMLID_218_" class="st0" d="M-129.4,254.5h-14.4l-15.7,40H-178v-40h-15v12.8c-2-7.9-9.2-12.8-18.3-12.8H-234v53h15v-15
				h7.7c9.1,0,16.3-4.9,18.3-12.8v27.8h44l3-9h18.9l2.9,9h16.2L-129.4,254.5z M-213.1,280.5h-5.9v-13h5.9c3.9,0,6.4,2.7,6.4,6.5
				S-209.2,280.5-213.1,280.5z M-142.5,287.5l5.9-16.5l5.9,16.5H-142.5z"/>
			
				<linearGradient id="XMLID_3_" gradientUnits="userSpaceOnUse" x1="-234" y1="282.1" x2="256.27" y2="282.1" gradientTransform="matrix(1 0 0 -1 0 563)">
				<stop  offset="0" style="stop-color:#FFFFFF"/>
				<stop  offset="1" style="stop-color:#000000"/>
			</linearGradient>
			<path id="XMLID_216_" class="st1" d="M-88.6,286.7v20.9h-15v-20.9l-18.5-32.5h16.3l9.8,19.3l9.8-19.3h16.3L-88.6,286.7z"/>
			
				<linearGradient id="XMLID_5_" gradientUnits="userSpaceOnUse" x1="-234" y1="281.75" x2="256.27" y2="281.75" gradientTransform="matrix(1 0 0 -1 0 563)">
				<stop  offset="0" style="stop-color:#FFFFFF"/>
				<stop  offset="1" style="stop-color:#000000"/>
			</linearGradient>
			<path id="XMLID_214_" class="st2" d="M-23,279.5v3.5c0-1.3,0.5-2.5,0.5-3.5H-23z"/>
			
				<linearGradient id="XMLID_6_" gradientUnits="userSpaceOnUse" x1="-234" y1="281.85" x2="256.27" y2="281.85" gradientTransform="matrix(1 0 0 -1 0 563)">
				<stop  offset="0" style="stop-color:#FFFFFF"/>
				<stop  offset="1" style="stop-color:#000000"/>
			</linearGradient>
			<path id="XMLID_213_" class="st3" d="M-23,279.1v4c-1,15.4-12.3,26-27.8,26c-16.4,0-28.4-11.8-28.4-28
				c0-16.3,11.9-27.9,28.4-27.9c14,0,25.5,8.4,27.8,21.4h-15.4c-1.9-5-6.7-7.6-12.2-7.6c-8,0-13.4,5.7-13.4,14.2s5.3,14.3,13.4,14.3
				c5.6,0,10.4-2.8,12.1-6.8H-52v-9.4L-23,279.1z"/>
			
				<linearGradient id="XMLID_7_" gradientUnits="userSpaceOnUse" x1="-234" y1="282.05" x2="256.27" y2="282.05" gradientTransform="matrix(1 0 0 -1 0 563)">
				<stop  offset="0" style="stop-color:#FFFFFF"/>
				<stop  offset="1" style="stop-color:#000000"/>
			</linearGradient>
			<path id="XMLID_209_" class="st4" d="M108,254.5v32.2c0,5.2-3.6,8.6-8.5,8.6s-8.5-3.4-8.5-8.6v-32.2H76v20
				c-3-12.9-13.8-21.6-28.6-21.6c-13,0-23.2,6.9-27.3,17.2c-1.5-9.4-9.3-15.6-19.6-15.6H-23v25h0.5c0,1-0.5,2.3-0.5,3.5v24.5h15v-16
				h5.4l8.7,16h16.4l-10.6-19.4c2.6-1.6,4.7-3.7,6.2-6.2c0.5,15.8,12.6,27,29.4,27c14.8,0,25.9-8.7,28.6-21.6
				c0.2,13,10,21.7,23.5,21.7c13.6,0,23.5-8.9,23.5-22v-32.5H108z M-1.3,278.5H-8v-11h6.7c4.1,0,6.5,2.1,6.5,5.5
				C5.2,276.3,2.9,278.5-1.3,278.5z M47.4,295.3c-8.1,0-14.1-6-14.1-14.4c0-8.3,6-14.4,14.1-14.4s14,6,14,14.4
				S55.6,295.3,47.4,295.3z"/>
			
				<linearGradient id="XMLID_8_" gradientUnits="userSpaceOnUse" x1="-234" y1="281.75" x2="256.27" y2="281.75" gradientTransform="matrix(1 0 0 -1 0 563)">
				<stop  offset="0" style="stop-color:#FFFFFF"/>
				<stop  offset="1" style="stop-color:#000000"/>
			</linearGradient>
			<path id="XMLID_207_" class="st5" d="M-23,279.5v3.5c0-1.3,0.5-2.5,0.5-3.5H-23z"/>
			
				<linearGradient id="XMLID_9_" gradientUnits="userSpaceOnUse" x1="-234" y1="282.1" x2="256.27" y2="282.1" gradientTransform="matrix(1 0 0 -1 0 563)">
				<stop  offset="0" style="stop-color:#FFFFFF"/>
				<stop  offset="1" style="stop-color:#000000"/>
			</linearGradient>
			<path id="XMLID_205_" class="st6" d="M172.6,254.2v53.4h-12.2l-21.2-29v29h-14.3v-53.4h12.9l20.5,28v-28
				C158.3,254.2,172.6,254.2,172.6,254.2z"/>
			
				<linearGradient id="XMLID_10_" gradientUnits="userSpaceOnUse" x1="-234" y1="282.05" x2="256.27" y2="282.05" gradientTransform="matrix(1 0 0 -1 0 563)">
				<stop  offset="0" style="stop-color:#FFFFFF"/>
				<stop  offset="1" style="stop-color:#000000"/>
			</linearGradient>
			<path id="XMLID_202_" class="st7" d="M224.5,280.9c0,15.6-11.4,26.8-27.6,26.8h-21.6v-53.5h21.6
				C213.1,254.2,224.5,265.3,224.5,280.9z M209.4,280.9c0-7.9-5.3-13.2-13.2-13.2h-6.1v26.5h6.1
				C204.1,294.2,209.4,288.8,209.4,280.9z"/>
		</g>
		
			<linearGradient id="XMLID_11_" gradientUnits="userSpaceOnUse" x1="-234" y1="258.85" x2="256.27" y2="258.85" gradientTransform="matrix(1 0 0 -1 0 563)">
			<stop  offset="0" style="stop-color:#FFFFFF"/>
			<stop  offset="1" style="stop-color:#000000"/>
		</linearGradient>
		<rect id="XMLID_200_" x="221.4" y="300.7" class="st8" width="7.2" height="6.9"/>
		
			<linearGradient id="XMLID_12_" gradientUnits="userSpaceOnUse" x1="-234" y1="270.4" x2="256.27" y2="270.4" gradientTransform="matrix(1 0 0 -1 0 563)">
			<stop  offset="0" style="stop-color:#FFFFFF"/>
			<stop  offset="1" style="stop-color:#000000"/>
		</linearGradient>
		<path id="XMLID_199_" class="st9" d="M256.3,286v5.8h-4.8v15.9H244v-15.9h-3.6l0,0H237v6.9c0,1.5,0.9,2.5,2.5,2.5h2.8v6.5h-5.1
			c-4.8,0-7.7-2.9-7.7-7.7v-8.2h-4v-1.7l9.7-10.3h1.5v6.3h3.6l0,0h3.7v-1.7c0-4.3,2.4-6.9,7-6.9h5.2v5.7h-3.3
			c-1.1,0-1.8,0.7-1.8,1.8v1.1h5.2V286z"/>
	</g>
	<g id="XMLID_174_">
		<g id="XMLID_177_">
			<path id="XMLID_194_" class="st10" d="M-129.4,254.5h-14.4l-15.7,40H-178v-40h-15v12.8c-2-7.9-9.2-12.8-18.3-12.8H-234v53h15v-15
				h7.7c9.1,0,16.3-4.9,18.3-12.8v27.8h44l3-9h18.9l2.9,9h16.2L-129.4,254.5z M-213.1,280.5h-5.9v-13h5.9c3.9,0,6.4,2.7,6.4,6.5
				S-209.2,280.5-213.1,280.5z M-142.5,287.5l5.9-16.5l5.9,16.5H-142.5z"/>
			<path id="XMLID_192_" class="st10" d="M-88.6,286.7v20.9h-15v-20.9l-18.5-32.5h16.3l9.8,19.3l9.8-19.3h16.3L-88.6,286.7z"/>
			
				<linearGradient id="XMLID_13_" gradientUnits="userSpaceOnUse" x1="-23" y1="281.75" x2="-22.49" y2="281.75" gradientTransform="matrix(1 0 0 -1 0 563)">
				<stop  offset="0" style="stop-color:#FFFFFF"/>
				<stop  offset="1" style="stop-color:#F3F3F3"/>
			</linearGradient>
			<path id="XMLID_190_" class="st11" d="M-23,279.5v3.5c0-1.3,0.5-2.5,0.5-3.5H-23z"/>
			<path id="XMLID_189_" class="st10" d="M-23,279.1v4c-1,15.4-12.3,26-27.8,26c-16.4,0-28.4-11.8-28.4-28
				c0-16.3,11.9-27.9,28.4-27.9c14,0,25.5,8.4,27.8,21.4h-15.4c-1.9-5-6.7-7.6-12.2-7.6c-8,0-13.4,5.7-13.4,14.2s5.3,14.3,13.4,14.3
				c5.6,0,10.4-2.8,12.1-6.8H-52v-9.4L-23,279.1z"/>
			<path id="XMLID_185_" class="st10" d="M108,254.5v32.2c0,5.2-3.6,8.6-8.5,8.6s-8.5-3.4-8.5-8.6v-32.2H76v20
				c-3-12.9-13.8-21.6-28.6-21.6c-13,0-23.2,6.9-27.3,17.2c-1.5-9.4-9.3-15.6-19.6-15.6H-23v25h0.5c0,1-0.5,2.3-0.5,3.5v24.5h15v-16
				h5.4l8.7,16h16.4l-10.6-19.4c2.6-1.6,4.7-3.7,6.2-6.2c0.5,15.8,12.6,27,29.4,27c14.8,0,25.9-8.7,28.6-21.6
				c0.2,13,10,21.7,23.5,21.7c13.6,0,23.5-8.9,23.5-22v-32.5H108z M-1.3,278.5H-8v-11h6.7c4.1,0,6.5,2.1,6.5,5.5
				C5.2,276.3,2.9,278.5-1.3,278.5z M47.4,295.3c-8.1,0-14.1-6-14.1-14.4c0-8.3,6-14.4,14.1-14.4s14,6,14,14.4
				S55.6,295.3,47.4,295.3z"/>
			
				<linearGradient id="XMLID_14_" gradientUnits="userSpaceOnUse" x1="-23" y1="281.75" x2="-22.49" y2="281.75" gradientTransform="matrix(1 0 0 -1 0 563)">
				<stop  offset="0" style="stop-color:#FFFFFF"/>
				<stop  offset="1" style="stop-color:#F3F3F3"/>
			</linearGradient>
			<path id="XMLID_183_" class="st12" d="M-23,279.5v3.5c0-1.3,0.5-2.5,0.5-3.5H-23z"/>
			<path id="XMLID_181_" class="st10" d="M172.6,254.2v53.4h-12.2l-21.2-29v29h-14.3v-53.4h12.9l20.5,28v-28
				C158.3,254.2,172.6,254.2,172.6,254.2z"/>
			<path id="XMLID_178_" class="st10" d="M224.5,280.9c0,15.6-11.4,26.8-27.6,26.8h-21.6v-53.5h21.6
				C213.1,254.2,224.5,265.3,224.5,280.9z M209.4,280.9c0-7.9-5.3-13.2-13.2-13.2h-6.1v26.5h6.1
				C204.1,294.2,209.4,288.8,209.4,280.9z"/>
		</g>
		<rect id="XMLID_176_" x="221.4" y="300.7" class="st13" width="7.2" height="6.9"/>
		<path id="XMLID_175_" class="st13" d="M256.3,286v5.8h-4.8v15.9H244v-15.9h-3.6l0,0H237v6.9c0,1.5,0.9,2.5,2.5,2.5h2.8v6.5h-5.1
			c-4.8,0-7.7-2.9-7.7-7.7v-8.2h-4v-1.7l9.7-10.3h1.5v6.3h3.6l0,0h3.7v-1.7c0-4.3,2.4-6.9,7-6.9h5.2v5.7h-3.3
			c-1.1,0-1.8,0.7-1.8,1.8v1.1h5.2V286z"/>
	</g>
</g>
<polygon id="XMLID_56_" class="st13" points="236.8,286 240.4,286 240.4,286 "/>
</svg>
